<?xml version="1.0" standalone="no"?><!DOCTYPE svg PUBLIC "-//W3C//DTD SVG 1.1//EN" "http://www.w3.org/Graphics/SVG/1.1/DTD/svg11.dtd"><svg t="1595756255331" class="icon" viewBox="0 0 1024 1024" version="1.1" xmlns="http://www.w3.org/2000/svg" p-id="6063" width="128" height="128" xmlns:xlink="http://www.w3.org/1999/xlink"><defs><style type="text/css"></style></defs><path d="M910.272 302.848a453.312 453.312 0 0 0-46.208-68.224 34.304 34.304 0 0 0-53.184 43.52 379.648 379.648 0 0 1 86.08 240.512 379.52 379.52 0 0 1-379.008 379.008 379.392 379.392 0 0 1-378.944-379.008 378.688 378.688 0 0 1 91.456-246.848 34.304 34.304 0 1 0-52.16-44.672 448 448 0 0 0-108.032 291.584A448.192 448.192 0 0 0 517.952 966.4a448.192 448.192 0 0 0 447.68-447.68 447.552 447.552 0 0 0-55.36-215.872z" p-id="6064" fill="#1296db"></path><path d="M563.84 516.8a45.824 45.824 0 1 1-91.648 0V109.824a45.888 45.888 0 0 1 91.648 0v406.976z" p-id="6065" fill="#1296db"></path></svg>